<?xml version="1.0" standalone="no"?>
<!DOCTYPE svg PUBLIC "-//W3C//DTD SVG 20010904//EN"
 "http://www.w3.org/TR/2001/REC-SVG-20010904/DTD/svg10.dtd">
<svg version="1.0" xmlns="http://www.w3.org/2000/svg"
 width="800.000000pt" height="650.000000pt" viewBox="0 0 715.000000 550.000000"
 preserveAspectRatio="xMidYMid meet">

<g transform="translate(0.000000,550.000000) scale(0.100000,-0.100000)"
fill="#000000" stroke="none">
<path d="M2180 4760 c-292 -50 -535 -142 -800 -303 -77 -46 -240 -176 -329
-262 -466 -449 -699 -1053 -652 -1694 48 -668 395 -1257 964 -1635 362 -241
855 -370 1284 -336 178 14 201 18 214 42 13 25 4 64 -16 72 -9 3 -64 1 -123
-5 -149 -16 -429 -5 -567 20 -418 79 -783 274 -1078 576 -162 165 -283 338
-385 546 -54 112 -120 296 -140 389 -6 30 -19 89 -28 130 -20 95 -31 315 -23
490 11 256 79 511 201 757 225 455 570 778 1063 994 46 20 214 73 288 90 281
67 630 67 924 -1 163 -38 458 -153 458 -179 0 -8 -29 -34 -65 -59 -404 -281
-719 -751 -835 -1247 -113 -479 -54 -995 162 -1429 219 -440 557 -776 988
-982 173 -82 309 -128 485 -164 380 -76 734 -55 1110 66 97 32 310 128 380
172 142 89 170 109 245 167 411 321 685 780 786 1320 20 103 23 153 23 360 0
219 -2 252 -27 380 -44 229 -108 417 -205 604 -315 609 -890 1017 -1585 1126
-85 14 -156 16 -345 13 -269 -4 -295 -10 -300 -65 -5 -46 19 -56 105 -43 101
14 403 12 518 -5 181 -26 350 -73 520 -145 178 -76 387 -206 521 -325 164
-146 326 -339 425 -510 33 -56 111 -214 129 -260 58 -148 95 -280 122 -440 28
-163 30 -481 4 -635 -62 -368 -188 -661 -409 -950 -64 -84 -252 -271 -346
-345 -251 -198 -562 -336 -891 -397 -96 -18 -153 -22 -350 -22 -294 0 -417 19
-674 108 -93 33 -256 106 -256 116 0 4 27 26 61 50 284 199 523 475 668 770
29 58 56 113 62 123 19 34 66 171 92 267 58 212 79 372 79 595 -2 666 -293
1261 -824 1679 -53 42 -99 76 -103 76 -3 0 -27 15 -53 33 -200 139 -514 258
-811 307 -158 27 -508 26 -661 0z m1320 -1070 c0 -363 -3 -660 -6 -660 -4 0
-43 33 -88 73 -70 63 -272 240 -466 406 -30 26 -70 58 -87 71 -18 13 -33 28
-33 33 0 15 68 123 138 222 103 143 256 306 382 406 65 53 142 107 153 108 4
1 7 -296 7 -659z m227 587 c101 -76 267 -233 342 -324 102 -125 227 -322 215
-339 -5 -7 -70 -63 -144 -125 -74 -61 -222 -189 -329 -283 -106 -94 -197 -172
-202 -174 -5 -2 -9 276 -9 657 0 566 2 661 14 661 8 0 59 -33 113 -73z m653
-842 c12 -33 31 -82 42 -110 39 -103 83 -298 103 -462 6 -47 5 -52 -17 -64
-13 -7 -57 -42 -99 -78 -82 -71 -98 -85 -204 -174 -38 -33 -92 -78 -120 -102
-27 -23 -90 -77 -140 -120 -49 -42 -101 -87 -115 -99 -88 -79 -219 -183 -224
-179 -3 4 -6 192 -6 418 l0 412 86 79 c48 44 96 87 108 97 12 10 39 35 61 55
35 33 140 125 215 189 196 168 266 221 276 210 7 -7 22 -39 34 -72z m-1405
-90 c152 -128 345 -300 462 -410 l64 -60 -3 -418 -3 -418 -85 71 c-47 39 -105
88 -129 108 -24 20 -49 42 -55 47 -10 9 -167 143 -366 313 -41 35 -91 78 -111
95 -20 18 -63 55 -97 82 -61 49 -62 51 -62 101 0 57 32 238 56 323 41 138 98
294 117 318 12 16 21 10 212 -152z m1552 -807 c-14 -376 -153 -770 -381 -1078
-84 -114 -206 -248 -292 -320 -49 -41 -91 -78 -94 -81 -15 -17 -136 -99 -147
-99 -10 0 -13 91 -13 468 l0 468 182 155 c100 84 234 198 297 253 64 54 141
119 170 145 30 25 89 75 130 111 104 90 142 120 148 120 3 0 3 -64 0 -142z
m-1478 -257 l451 -383 0 -464 c0 -313 -3 -464 -10 -464 -32 0 -184 122 -316
254 -111 111 -216 239 -270 329 -16 27 -37 61 -46 75 -56 88 -140 276 -182
407 -38 121 -47 156 -66 258 -24 131 -39 382 -22 376 6 -2 214 -177 461 -388z"/>
</g>
</svg>
